<mxfile host="app.diagrams.net" modified="2024-02-23T09:19:07.642Z" agent="Mozilla/5.0 (Macintosh; Intel Mac OS X 10_15_7) AppleWebKit/537.36 (KHTML, like Gecko) Chrome/121.0.0.0 Safari/537.36" etag="HF0do7O5aBlAAd1tX93G" version="23.1.6" type="github">
  <diagram name="第 1 页" id="g__cL9et6w1Bz4wDRFb3">
    <mxGraphModel dx="1616" dy="1600" grid="1" gridSize="10" guides="1" tooltips="1" connect="1" arrows="1" fold="1" page="1" pageScale="1" pageWidth="827" pageHeight="1169" math="0" shadow="0">
      <root>
        <mxCell id="0" />
        <mxCell id="1" parent="0" />
        <mxCell id="aSiWcfBO7DVynULOfoQH-1" value="应用层&lt;br&gt;Application" style="rounded=1;whiteSpace=wrap;html=1;" vertex="1" parent="1">
          <mxGeometry x="130" y="100" width="120" height="60" as="geometry" />
        </mxCell>
        <mxCell id="aSiWcfBO7DVynULOfoQH-2" value="传输层&lt;br&gt;Transport" style="rounded=1;whiteSpace=wrap;html=1;" vertex="1" parent="1">
          <mxGeometry x="130" y="160" width="120" height="60" as="geometry" />
        </mxCell>
        <mxCell id="aSiWcfBO7DVynULOfoQH-3" value="网络层&lt;br&gt;Network" style="rounded=1;whiteSpace=wrap;html=1;" vertex="1" parent="1">
          <mxGeometry x="130" y="220" width="120" height="60" as="geometry" />
        </mxCell>
        <mxCell id="aSiWcfBO7DVynULOfoQH-4" value="数据链路层&lt;br&gt;DataLink" style="rounded=1;whiteSpace=wrap;html=1;" vertex="1" parent="1">
          <mxGeometry x="130" y="280" width="120" height="60" as="geometry" />
        </mxCell>
        <mxCell id="aSiWcfBO7DVynULOfoQH-5" value="应用层&lt;br&gt;Application" style="rounded=1;whiteSpace=wrap;html=1;" vertex="1" parent="1">
          <mxGeometry x="730" y="-20" width="120" height="60" as="geometry" />
        </mxCell>
        <mxCell id="aSiWcfBO7DVynULOfoQH-6" value="传输层&lt;br&gt;Transport" style="rounded=1;whiteSpace=wrap;html=1;" vertex="1" parent="1">
          <mxGeometry x="730" y="160" width="120" height="60" as="geometry" />
        </mxCell>
        <mxCell id="aSiWcfBO7DVynULOfoQH-7" value="网络层&lt;br&gt;Network" style="rounded=1;whiteSpace=wrap;html=1;" vertex="1" parent="1">
          <mxGeometry x="730" y="220" width="120" height="60" as="geometry" />
        </mxCell>
        <mxCell id="aSiWcfBO7DVynULOfoQH-8" value="数据链路层&lt;br&gt;DataLink" style="rounded=1;whiteSpace=wrap;html=1;" vertex="1" parent="1">
          <mxGeometry x="730" y="280" width="120" height="60" as="geometry" />
        </mxCell>
        <mxCell id="aSiWcfBO7DVynULOfoQH-9" value="表示层&lt;br&gt;Presentation" style="rounded=1;whiteSpace=wrap;html=1;" vertex="1" parent="1">
          <mxGeometry x="730" y="40" width="120" height="60" as="geometry" />
        </mxCell>
        <mxCell id="aSiWcfBO7DVynULOfoQH-10" value="会话层&lt;br&gt;Session" style="rounded=1;whiteSpace=wrap;html=1;" vertex="1" parent="1">
          <mxGeometry x="730" y="100" width="120" height="60" as="geometry" />
        </mxCell>
        <mxCell id="aSiWcfBO7DVynULOfoQH-11" value="物理层&lt;br&gt;Physical" style="rounded=1;whiteSpace=wrap;html=1;" vertex="1" parent="1">
          <mxGeometry x="730" y="340" width="120" height="60" as="geometry" />
        </mxCell>
        <mxCell id="aSiWcfBO7DVynULOfoQH-12" value="HTTP" style="rounded=0;whiteSpace=wrap;html=1;" vertex="1" parent="1">
          <mxGeometry x="-90" y="100" width="120" height="60" as="geometry" />
        </mxCell>
        <mxCell id="aSiWcfBO7DVynULOfoQH-13" value="TCP/UDP" style="rounded=0;whiteSpace=wrap;html=1;" vertex="1" parent="1">
          <mxGeometry x="-90" y="160" width="120" height="60" as="geometry" />
        </mxCell>
        <mxCell id="aSiWcfBO7DVynULOfoQH-14" value="IP" style="rounded=0;whiteSpace=wrap;html=1;" vertex="1" parent="1">
          <mxGeometry x="-90" y="220" width="120" height="60" as="geometry" />
        </mxCell>
        <mxCell id="aSiWcfBO7DVynULOfoQH-15" value="数据" style="rounded=0;whiteSpace=wrap;html=1;" vertex="1" parent="1">
          <mxGeometry x="320" y="112.5" width="75" height="35" as="geometry" />
        </mxCell>
        <mxCell id="aSiWcfBO7DVynULOfoQH-16" value="数据" style="rounded=0;whiteSpace=wrap;html=1;" vertex="1" parent="1">
          <mxGeometry x="320" y="172.5" width="75" height="35" as="geometry" />
        </mxCell>
        <mxCell id="aSiWcfBO7DVynULOfoQH-17" value="HTTP" style="rounded=0;whiteSpace=wrap;html=1;" vertex="1" parent="1">
          <mxGeometry x="395" y="172.5" width="75" height="35" as="geometry" />
        </mxCell>
        <mxCell id="aSiWcfBO7DVynULOfoQH-19" value="数据" style="rounded=0;whiteSpace=wrap;html=1;" vertex="1" parent="1">
          <mxGeometry x="320" y="232.5" width="75" height="35" as="geometry" />
        </mxCell>
        <mxCell id="aSiWcfBO7DVynULOfoQH-20" value="HTTP" style="rounded=0;whiteSpace=wrap;html=1;" vertex="1" parent="1">
          <mxGeometry x="395" y="232.5" width="75" height="35" as="geometry" />
        </mxCell>
        <mxCell id="aSiWcfBO7DVynULOfoQH-21" value="IP" style="rounded=0;whiteSpace=wrap;html=1;" vertex="1" parent="1">
          <mxGeometry x="470" y="232.5" width="75" height="35" as="geometry" />
        </mxCell>
        <mxCell id="aSiWcfBO7DVynULOfoQH-22" value="数据" style="rounded=0;whiteSpace=wrap;html=1;" vertex="1" parent="1">
          <mxGeometry x="320" y="292.5" width="75" height="35" as="geometry" />
        </mxCell>
        <mxCell id="aSiWcfBO7DVynULOfoQH-23" value="HTTP" style="rounded=0;whiteSpace=wrap;html=1;" vertex="1" parent="1">
          <mxGeometry x="395" y="292.5" width="75" height="35" as="geometry" />
        </mxCell>
        <mxCell id="aSiWcfBO7DVynULOfoQH-24" value="IP" style="rounded=0;whiteSpace=wrap;html=1;" vertex="1" parent="1">
          <mxGeometry x="470" y="292.5" width="75" height="35" as="geometry" />
        </mxCell>
        <mxCell id="aSiWcfBO7DVynULOfoQH-25" value="MAC" style="rounded=0;whiteSpace=wrap;html=1;" vertex="1" parent="1">
          <mxGeometry x="545" y="292.5" width="75" height="35" as="geometry" />
        </mxCell>
        <mxCell id="aSiWcfBO7DVynULOfoQH-26" value="HTTP" style="rounded=0;whiteSpace=wrap;html=1;" vertex="1" parent="1">
          <mxGeometry x="-90" y="910" width="120" height="60" as="geometry" />
        </mxCell>
        <mxCell id="aSiWcfBO7DVynULOfoQH-27" value="TCP/UDP" style="rounded=0;whiteSpace=wrap;html=1;" vertex="1" parent="1">
          <mxGeometry x="-90" y="970" width="120" height="60" as="geometry" />
        </mxCell>
        <mxCell id="aSiWcfBO7DVynULOfoQH-28" value="IP" style="rounded=0;whiteSpace=wrap;html=1;" vertex="1" parent="1">
          <mxGeometry x="-90" y="1030" width="120" height="60" as="geometry" />
        </mxCell>
        <mxCell id="aSiWcfBO7DVynULOfoQH-29" value="HTTP" style="rounded=0;whiteSpace=wrap;html=1;" vertex="1" parent="1">
          <mxGeometry x="490" y="910" width="120" height="60" as="geometry" />
        </mxCell>
        <mxCell id="aSiWcfBO7DVynULOfoQH-30" value="TCP/UDP" style="rounded=0;whiteSpace=wrap;html=1;" vertex="1" parent="1">
          <mxGeometry x="490" y="970" width="120" height="60" as="geometry" />
        </mxCell>
        <mxCell id="aSiWcfBO7DVynULOfoQH-31" value="IP" style="rounded=0;whiteSpace=wrap;html=1;" vertex="1" parent="1">
          <mxGeometry x="490" y="1030" width="120" height="60" as="geometry" />
        </mxCell>
        <mxCell id="aSiWcfBO7DVynULOfoQH-34" style="edgeStyle=orthogonalEdgeStyle;rounded=0;orthogonalLoop=1;jettySize=auto;html=1;exitX=0.5;exitY=0;exitDx=0;exitDy=0;entryX=0.5;entryY=1;entryDx=0;entryDy=0;" edge="1" parent="1" source="aSiWcfBO7DVynULOfoQH-32" target="aSiWcfBO7DVynULOfoQH-33">
          <mxGeometry relative="1" as="geometry" />
        </mxCell>
        <mxCell id="aSiWcfBO7DVynULOfoQH-42" style="edgeStyle=orthogonalEdgeStyle;rounded=0;orthogonalLoop=1;jettySize=auto;html=1;exitX=1;exitY=0.5;exitDx=0;exitDy=0;" edge="1" parent="1" source="aSiWcfBO7DVynULOfoQH-32">
          <mxGeometry relative="1" as="geometry">
            <mxPoint x="160" y="940" as="targetPoint" />
          </mxGeometry>
        </mxCell>
        <mxCell id="aSiWcfBO7DVynULOfoQH-32" value="URL解析" style="text;html=1;align=center;verticalAlign=middle;whiteSpace=wrap;rounded=0;" vertex="1" parent="1">
          <mxGeometry x="50" y="925" width="60" height="30" as="geometry" />
        </mxCell>
        <mxCell id="aSiWcfBO7DVynULOfoQH-33" value="http://www.hjy.com/dir1/file.html" style="text;html=1;align=center;verticalAlign=middle;whiteSpace=wrap;rounded=0;" vertex="1" parent="1">
          <mxGeometry x="-10" y="850" width="180" height="30" as="geometry" />
        </mxCell>
        <mxCell id="aSiWcfBO7DVynULOfoQH-35" value="协议" style="text;html=1;align=center;verticalAlign=middle;whiteSpace=wrap;rounded=0;" vertex="1" parent="1">
          <mxGeometry x="-80" y="800" width="60" height="30" as="geometry" />
        </mxCell>
        <mxCell id="aSiWcfBO7DVynULOfoQH-36" value="" style="endArrow=classic;html=1;rounded=0;entryX=0.5;entryY=1;entryDx=0;entryDy=0;" edge="1" parent="1" target="aSiWcfBO7DVynULOfoQH-35">
          <mxGeometry width="50" height="50" relative="1" as="geometry">
            <mxPoint y="860" as="sourcePoint" />
            <mxPoint x="50" y="810" as="targetPoint" />
          </mxGeometry>
        </mxCell>
        <mxCell id="aSiWcfBO7DVynULOfoQH-37" value="域名+(端口)" style="text;html=1;align=center;verticalAlign=middle;whiteSpace=wrap;rounded=0;" vertex="1" parent="1">
          <mxGeometry x="20" y="800" width="70" height="30" as="geometry" />
        </mxCell>
        <mxCell id="aSiWcfBO7DVynULOfoQH-38" value="" style="endArrow=classic;html=1;rounded=0;entryX=0.429;entryY=1;entryDx=0;entryDy=0;entryPerimeter=0;" edge="1" parent="1" target="aSiWcfBO7DVynULOfoQH-37">
          <mxGeometry width="50" height="50" relative="1" as="geometry">
            <mxPoint x="50" y="860" as="sourcePoint" />
            <mxPoint x="100" y="810" as="targetPoint" />
          </mxGeometry>
        </mxCell>
        <mxCell id="aSiWcfBO7DVynULOfoQH-40" value="文件路径" style="text;html=1;align=center;verticalAlign=middle;whiteSpace=wrap;rounded=0;" vertex="1" parent="1">
          <mxGeometry x="130" y="800" width="60" height="30" as="geometry" />
        </mxCell>
        <mxCell id="aSiWcfBO7DVynULOfoQH-41" value="" style="endArrow=classic;html=1;rounded=0;entryX=0.5;entryY=1;entryDx=0;entryDy=0;" edge="1" parent="1" target="aSiWcfBO7DVynULOfoQH-40">
          <mxGeometry width="50" height="50" relative="1" as="geometry">
            <mxPoint x="140" y="860" as="sourcePoint" />
            <mxPoint x="190" y="810" as="targetPoint" />
          </mxGeometry>
        </mxCell>
        <mxCell id="aSiWcfBO7DVynULOfoQH-45" style="edgeStyle=orthogonalEdgeStyle;rounded=0;orthogonalLoop=1;jettySize=auto;html=1;exitX=0.5;exitY=1;exitDx=0;exitDy=0;" edge="1" parent="1" source="aSiWcfBO7DVynULOfoQH-43" target="aSiWcfBO7DVynULOfoQH-44">
          <mxGeometry relative="1" as="geometry" />
        </mxCell>
        <mxCell id="aSiWcfBO7DVynULOfoQH-43" value="DNS解析查询IP地址" style="text;html=1;align=center;verticalAlign=middle;whiteSpace=wrap;rounded=0;" vertex="1" parent="1">
          <mxGeometry x="170" y="920" width="70" height="35" as="geometry" />
        </mxCell>
        <mxCell id="aSiWcfBO7DVynULOfoQH-47" style="edgeStyle=orthogonalEdgeStyle;rounded=0;orthogonalLoop=1;jettySize=auto;html=1;exitX=1;exitY=0.5;exitDx=0;exitDy=0;entryX=0;entryY=0.5;entryDx=0;entryDy=0;" edge="1" parent="1" source="aSiWcfBO7DVynULOfoQH-44" target="aSiWcfBO7DVynULOfoQH-46">
          <mxGeometry relative="1" as="geometry" />
        </mxCell>
        <mxCell id="aSiWcfBO7DVynULOfoQH-44" value="TCP&lt;br&gt;三次握手" style="text;html=1;align=center;verticalAlign=middle;whiteSpace=wrap;rounded=0;" vertex="1" parent="1">
          <mxGeometry x="170" y="982.5" width="70" height="35" as="geometry" />
        </mxCell>
        <mxCell id="aSiWcfBO7DVynULOfoQH-48" style="edgeStyle=orthogonalEdgeStyle;rounded=0;orthogonalLoop=1;jettySize=auto;html=1;exitX=0.5;exitY=1;exitDx=0;exitDy=0;" edge="1" parent="1" source="aSiWcfBO7DVynULOfoQH-46">
          <mxGeometry relative="1" as="geometry">
            <mxPoint x="300.1538461538462" y="1050" as="targetPoint" />
          </mxGeometry>
        </mxCell>
        <mxCell id="aSiWcfBO7DVynULOfoQH-46" value="TCP报文" style="text;html=1;align=center;verticalAlign=middle;whiteSpace=wrap;rounded=0;" vertex="1" parent="1">
          <mxGeometry x="270" y="985" width="60" height="30" as="geometry" />
        </mxCell>
        <mxCell id="aSiWcfBO7DVynULOfoQH-57" style="edgeStyle=orthogonalEdgeStyle;rounded=0;orthogonalLoop=1;jettySize=auto;html=1;exitX=0.5;exitY=1;exitDx=0;exitDy=0;entryX=0.5;entryY=0;entryDx=0;entryDy=0;" edge="1" parent="1" source="aSiWcfBO7DVynULOfoQH-49" target="aSiWcfBO7DVynULOfoQH-56">
          <mxGeometry relative="1" as="geometry" />
        </mxCell>
        <mxCell id="aSiWcfBO7DVynULOfoQH-49" value="IP报文" style="text;html=1;align=center;verticalAlign=middle;whiteSpace=wrap;rounded=0;" vertex="1" parent="1">
          <mxGeometry x="270" y="1045" width="60" height="30" as="geometry" />
        </mxCell>
        <mxCell id="aSiWcfBO7DVynULOfoQH-50" value="源端口" style="text;html=1;align=center;verticalAlign=middle;whiteSpace=wrap;rounded=0;" vertex="1" parent="1">
          <mxGeometry x="327.5" y="970" width="60" height="30" as="geometry" />
        </mxCell>
        <mxCell id="aSiWcfBO7DVynULOfoQH-51" value="目标端口" style="text;html=1;align=center;verticalAlign=middle;whiteSpace=wrap;rounded=0;" vertex="1" parent="1">
          <mxGeometry x="327.5" y="987.5" width="60" height="30" as="geometry" />
        </mxCell>
        <mxCell id="aSiWcfBO7DVynULOfoQH-52" value="源IP" style="text;html=1;align=center;verticalAlign=middle;whiteSpace=wrap;rounded=0;" vertex="1" parent="1">
          <mxGeometry x="320" y="1035" width="60" height="30" as="geometry" />
        </mxCell>
        <mxCell id="aSiWcfBO7DVynULOfoQH-53" value="目标IP" style="text;html=1;align=center;verticalAlign=middle;whiteSpace=wrap;rounded=0;" vertex="1" parent="1">
          <mxGeometry x="320" y="1050" width="60" height="30" as="geometry" />
        </mxCell>
        <mxCell id="aSiWcfBO7DVynULOfoQH-55" value="MAC" style="rounded=0;whiteSpace=wrap;html=1;" vertex="1" parent="1">
          <mxGeometry x="-90" y="1090" width="120" height="60" as="geometry" />
        </mxCell>
        <mxCell id="aSiWcfBO7DVynULOfoQH-56" value="MAC地址" style="text;html=1;align=center;verticalAlign=middle;whiteSpace=wrap;rounded=0;" vertex="1" parent="1">
          <mxGeometry x="270" y="1105" width="60" height="30" as="geometry" />
        </mxCell>
        <mxCell id="aSiWcfBO7DVynULOfoQH-58" value="广播" style="text;html=1;align=center;verticalAlign=middle;whiteSpace=wrap;rounded=0;" vertex="1" parent="1">
          <mxGeometry x="240" y="1080" width="60" height="30" as="geometry" />
        </mxCell>
      </root>
    </mxGraphModel>
  </diagram>
</mxfile>
